<svg xmlns="http://www.w3.org/2000/svg"
shape-rendering="geometricPrecision"
width="4000" height="4000" viewBox="0 0 1024 1024">
  <metadata>null</metadata>

<path d="
M 330.975 493.115
C 331.28 486.52 332.574 479.845 334.331 473.497
C 334.695 472.184 335.067 470.877 335.439 469.568
C 335.612 468.958 335.207 467.667 335.84 467.709
C 336.331 467.742 336.069 468.667 336.178 469.148
C 336.373 470.013 336.617 470.861 336.818 471.719
C 337.875 476.24 339.123 480.674 340.923 484.969
C 345.728 496.437 352.681 506.887 361.588 515.571
C 367.353 521.191 373.381 526.667 379.818 531.513
C 388.33 537.922 397.699 543.212 406.532 549.161
C 425.074 561.65 443.439 574.448 461.738 587.291
C 467.137 591.08 472.629 594.767 478.156 598.366
C 481.804 600.742 485.796 602.881 488.594 606.304
C 493.39 612.172 493.232 621.374 488.392 627.171
C 483.937 632.508 475.831 634.196 469.405 631.928
C 464.86 630.324 460.963 626.73 456.994 624.056
C 448.887 618.595 440.794 613.124 432.663 607.699
C 418.92 598.528 405.271 589.221 391.452 580.163
C 378.639 571.764 365.124 563.862 354.228 552.973
C 338.728 537.483 329.965 514.943 330.975 493.115 Z"
opacity="1" fill="rgb(4,24,160)" fill-rule="evenodd" />
<path d="
M 347.849 569.219
C 348.609 568.93 349.415 569.765 350.062 570.236
C 351.84 571.532 353.678 572.746 355.512 573.962
C 363.094 578.989 370.695 583.986 378.285 589.002
C 398.592 602.424 418.687 616.168 439.009 629.566
C 444.489 633.179 449.952 636.833 455.407 640.484
C 460.172 643.674 465.093 647.262 470.773 648.606
C 474.773 649.553 478.861 649.58 482.922 649.064
C 486.732 648.58 490.443 647.32 493.806 645.484
C 496.841 643.827 499.79 641.605 502.134 639.052
C 515.971 623.986 512.39 599.502 496.193 587.746
C 486.832 580.951 474.903 578.439 465.189 572.11
C 453.489 564.487 443.496 554.014 437.356 541.398
C 434.8 536.146 433.802 530.451 431.652 525.09
C 421.8 525.61 411.559 524.476 402.201 521.316
C 375.122 512.172 353.331 488.086 349.267 459.47
C 347.919 449.973 348.496 440.667 350.64 431.356
C 352.44 423.542 355.939 415.626 360.512 409.038
C 369.745 395.737 382.722 384.914 398.46 380.331
C 402.194 379.243 405.932 378.618 409.768 378.034
C 410.5 377.922 412.92 377.212 413.346 377.926
C 410.379 389.206 409.008 400.245 408.822 411.888
C 408.171 412.818 406.235 413.363 405.228 413.859
C 402.717 415.096 400.312 416.482 398.016 418.088
C 391.285 422.798 386.377 429.748 384.368 437.72
C 380.293 453.884 385.35 471.926 398.738 482.243
C 402.706 485.301 407.164 487.484 411.905 489.044
C 416.327 490.5 421.139 491.411 425.805 491.468
C 427.295 491.486 429.207 491.656 430.604 491.026
C 432.452 490.192 433.022 486.252 433.621 484.529
C 435.459 479.243 437.859 474.198 440.685 469.374
C 446.672 459.151 454.873 451.31 464.775 444.895
C 468.131 442.721 471.434 440.232 475.125 438.654
C 476.339 439.596 477.218 442.391 478.121 443.743
C 480.502 447.307 483.108 450.615 486.017 453.767
C 488.227 456.162 490.531 458.499 492.88 460.757
C 493.235 461.099 494.995 462.421 494.827 462.805
C 492.488 464.795 488.686 465.672 486.04 467.387
C 479.189 471.83 473.454 477.048 469.237 484.106
C 457.537 503.687 463.633 531.707 482.211 544.752
C 492.047 551.659 504.699 552.982 514.401 560.287
C 523.718 567.303 532.038 576.353 537.366 586.775
C 545.409 602.511 546.431 621.991 540.921 638.665
C 537.875 647.881 532.928 656.131 526.182 663.121
C 507.701 682.269 475.452 687.367 451.217 677.167
C 443.651 673.982 437.23 669.255 430.461 664.718
C 422.45 659.35 414.486 653.907 406.384 648.673
C 389.755 637.932 371.006 628.994 360.318 611.496
C 355.414 603.467 351.728 594.597 349.812 585.371
C 348.71 580.066 348.334 574.605 347.849 569.219 Z"
opacity="1" fill="rgb(4,24,160)" fill-rule="evenodd" />
<path d="
M 398.974 445.113
C 399.378 441.087 400.535 437.708 403.241 434.633
C 409.041 428.042 419.127 425.419 422.624 416.796
C 424.713 411.646 424.132 405.846 424.374 400.416
C 424.697 393.167 425.661 385.895 427.6 378.895
C 429.839 370.809 433.444 362.765 438.442 355.998
C 448.4 342.513 463.932 334.357 480.185 331.273
C 484.961 330.366 489.861 329.886 494.723 329.818
C 496.522 329.793 498.79 329.479 500.517 329.968
C 500.318 330.983 497.53 332.423 496.62 333.114
C 493.047 335.831 489.649 338.688 486.527 341.919
C 477.3 351.471 470.002 362.658 465.38 375.135
C 461.376 385.941 459.703 397.254 460.278 408.752
C 460.664 416.471 464.018 424.579 457.237 430.596
C 449.535 437.429 441.885 444.14 434.537 451.388
C 430.647 455.224 426.982 460.408 421.77 462.485
C 410.042 467.157 398.18 457.185 398.974 445.113 Z"
opacity="1" fill="rgb(4,23,159)" fill-rule="evenodd" />
<path d="
M 478.453 396.113
C 479.752 384.011 482.543 372.702 489.267 362.363
C 505.572 337.293 538.654 326.985 566.676 336.545
C 579.84 341.036 590.614 350.467 602.248 357.825
C 625.197 372.339 652.888 385.552 665.882 410.765
C 668.467 415.781 670.352 421.257 671.196 426.844
C 672.147 433.144 672.022 439.527 673.161 445.787
C 672.894 445.929 671.836 444.863 671.587 444.663
C 669.89 443.301 667.95 442.16 666.172 440.895
C 658.905 435.724 651.313 430.979 643.908 426.009
C 623.567 412.358 603.147 398.8 582.636 385.402
C 577.426 381.999 572.239 378.563 567.084 375.077
C 562.327 371.861 558 368.623 552.386 367.051
C 533.671 361.81 515.074 376.753 512.427 395.043
C 510.634 407.424 515.719 419.24 525.347 427.028
C 527.712 428.941 530.656 430.23 533.366 431.568
C 539.998 434.846 547.028 437.305 553.37 441.17
C 571.571 452.264 585.51 469.697 591.682 490.158
C 595.513 490.712 599.519 489.929 603.385 490.45
C 609.624 491.29 615.702 492.302 621.702 494.296
C 647.429 502.847 668.269 526.75 672.587 553.597
C 676.128 575.619 670.259 599.429 654.654 615.817
C 648.22 622.575 640.382 627.653 632.015 631.682
C 626.574 634.302 620.93 635.988 615.222 637.866
C 613.799 638.335 612.318 638.583 610.89 639.023
C 610.15 639.252 609.079 639.782 608.3 639.632
C 611.258 631.861 612.587 622.758 613.231 614.499
C 613.438 611.834 613.54 609.16 613.63 606.489
C 613.668 605.348 613.424 603.963 613.777 602.889
C 625.463 597.584 635.185 590.389 638.47 577.319
C 642.808 560.058 635.247 540.677 620.431 530.897
C 616.322 528.184 611.679 526.414 606.926 525.207
C 602.484 524.08 597.074 522.952 592.49 523.794
C 590.098 524.234 589.658 528.449 589.082 530.391
C 587.227 536.655 584.424 542.788 580.755 548.2
C 572.092 560.982 558.873 568.296 547.397 578.054
C 546.782 577.703 546.342 576.446 545.977 575.812
C 544.906 573.953 543.939 572.083 542.696 570.327
C 539.612 565.97 536.309 561.825 532.901 557.718
C 531.44 555.959 529.881 553.818 528.106 552.379
C 528.77 551.213 531.135 550.441 532.329 549.798
C 535.283 548.21 538.146 546.434 540.843 544.439
C 549.366 538.134 555.579 529.163 558.111 518.841
C 562.651 500.329 555.118 480.54 538.855 470.368
C 528.483 463.88 516.147 461.343 506.114 454.181
C 487.836 441.134 477.149 418.507 478.453 396.113 Z"
opacity="1" fill="rgb(4,24,160)" fill-rule="evenodd" />
<path d="
M 478.459 501.592
C 479.283 496.662 481.261 491.541 484.342 487.587
C 492.158 477.554 503.574 472.324 516.394 474.046
C 534.046 476.417 547.343 495.44 544.53 512.877
C 543.445 519.603 540.474 526.021 535.817 531.029
C 525.737 541.867 508.566 544.22 495.607 537.48
C 491.384 535.284 487.988 531.947 485.06 528.251
C 482.241 524.693 480.232 520.381 479.148 515.977
C 478.006 511.336 477.667 506.323 478.459 501.592 Z
M 493.982 504.612
C 493.634 507.1 493.856 509.606 494.478 512.037
C 495 514.081 495.963 516.125 497.2 517.832
C 506.282 530.366 526.457 524.283 528.445 509.411
C 530.409 494.723 512.667 483.94 500.783 493.141
C 499.064 494.473 497.559 496.136 496.436 498
C 495.24 499.985 494.304 502.308 493.982 504.612 Z"
opacity="1" fill="rgb(4,24,158)" fill-rule="evenodd" />
<path d="
M 522.816 685.583
C 529.139 681.835 534.961 675.64 539.746 670.143
C 551.816 656.279 560.197 639.997 562.092 621.508
C 562.771 614.884 562.652 608.164 562.105 601.537
C 561.776 597.557 560.293 593.642 561.952 589.775
C 563.603 585.925 566.809 583.358 569.93 580.737
C 573.158 578.027 576.475 575.416 579.6 572.583
C 584.413 568.22 588.784 563.308 593.414 558.752
C 597.006 555.218 600.575 551.65 605.895 551.248
C 618.596 550.289 627.405 562.805 622.963 574.676
C 620.684 580.765 615.134 584.388 609.775 587.54
C 605.971 589.779 601.727 592.316 599.911 596.535
C 597.555 602.012 598.538 608.422 598.436 614.21
C 598.313 621.224 597.269 628.192 595.577 634.991
C 593.318 644.071 589.25 652.631 583.806 660.222
C 570.179 679.227 545.364 687.374 522.746 686.042
C 522.769 685.889 522.792 685.736 522.816 685.583 Z"
opacity="1" fill="rgb(4,24,159)" fill-rule="evenodd" />
<path d="
M 530.455 398.11
C 530.793 395.198 531.48 392.485 533.138 390.015
C 537.277 383.85 545.939 381.504 552.89 383.761
C 557.073 385.119 560.731 388.166 564.237 390.729
C 567.013 392.759 569.973 394.539 572.811 396.478
C 595.579 412.029 619.037 426.572 641.747 442.211
C 646.946 445.792 652.387 449.041 657.44 452.832
C 667.876 460.66 677.887 470.982 683.898 482.656
C 690.869 496.195 693.916 511.198 691.979 526.391
C 691.371 531.161 690.338 535.766 689.346 540.458
C 688.951 542.326 688.333 544.133 687.89 545.983
C 687.811 546.313 687.603 548.005 687.159 547.447
C 686.259 541.282 683.792 535.228 681.266 529.581
C 673.987 513.312 662.273 498.542 647.936 487.92
C 639.329 481.544 630.076 476.265 621.144 470.354
C 606.225 460.481 591.858 449.777 576.951 439.889
C 565.994 432.621 555.36 424.869 544.376 417.642
C 541.152 415.521 537.404 413.588 534.704 410.791
C 531.439 407.409 530.171 402.714 530.455 398.11 Z"
opacity="1" fill="rgb(4,24,160)" fill-rule="evenodd" />

</svg>