<svg xmlns="http://www.w3.org/2000/svg"
shape-rendering="geometricPrecision"
width="4000" height="4000" viewBox="0 0 660 660">
  <metadata>null</metadata>

<path d="
M 336.044 455.732
C 335.549 459.056 337.463 463.567 338.263 466.816
C 339.871 473.347 341.057 479.95 342.02 486.604
C 344.841 506.084 344.264 526.28 340.08 545.517
C 337.58 557.012 333.269 567.846 328.029 578.349
C 326.294 581.827 324.269 585.164 322.272 588.494
C 321.465 589.841 320.459 591.083 319.696 592.452
C 319.362 593.051 319.614 593.59 320.321 593.285
C 319.006 595.041 317.1 596.374 315.612 597.995
C 307.47 606.864 297.477 613.559 286.577 618.661
C 277.412 622.951 267.804 626.094 257.806 627.742
C 229.54 632.401 199.97 625.571 176.732 608.726
C 171.997 605.294 167.987 601.245 163.783 597.216
C 156.086 589.84 148.605 582.264 141.005 574.788
C 122.564 556.646 104.24 538.381 85.867 520.17
C 79.734 514.092 73.739 507.857 67.495 501.893
C 61.877 496.527 56.374 491.051 50.891 485.547
C 47.27 481.912 43.301 478.479 40.28 474.311
C 31.323 461.951 27.819 444.721 32.826 430.122
C 34.352 425.675 36.237 421.598 38.893 417.703
C 53.572 396.177 85.37 391.362 105.49 408.068
C 110.449 412.185 114.778 417.138 119.235 421.78
C 124.802 427.578 130.474 433.275 136.035 439.08
C 151.808 455.547 168.155 471.589 184.324 487.674
C 197.406 500.686 209.716 515.965 227.28 522.939
C 231.643 524.671 236.236 525.511 240.879 525.98
C 244.473 526.344 248.107 526.244 251.682 525.73
C 260.623 524.446 268.704 521.193 276.117 516.019
C 286.569 508.725 294.944 498.125 303.801 489.063
C 314.59 478.024 325.583 467.065 336.044 455.732 Z"
opacity="1" fill="rgb(19,4,93)" fill-rule="evenodd" />
<path d="
M 140.644 220.315
C 139.931 221.129 138.841 221.451 138.078 222.285
C 133.681 227.096 129.516 232.182 125.778 237.526
C 123.212 241.195 121.043 245.202 119.012 249.186
C 108.775 269.264 103.621 295.185 115.151 315.966
C 118.101 321.284 122.117 325.745 126.524 329.893
C 131.718 334.781 138.033 338.115 144.645 340.628
C 158.964 346.069 175.037 348.425 190.294 347.874
C 195.775 347.676 201.202 346.932 206.594 345.946
C 208.455 345.606 211.88 344.504 213.603 345.422
C 217.341 348.643 220.677 352.385 224.226 355.813
C 230.786 362.148 237.429 368.382 243.925 374.785
C 251.262 382.015 259.06 388.746 266.398 395.977
C 276.235 405.67 287.534 414.319 292.645 427.601
C 299.355 445.038 294.054 467.064 279.922 479.315
C 270.892 487.143 259.157 491.001 247.285 490.72
C 241.029 490.571 234.629 489.182 229.147 486.101
C 220.383 481.176 213.631 472.207 206.782 465.018
C 187.791 445.085 168.328 425.561 148.981 405.974
C 130.287 387.048 111.627 368.081 92.908 349.192
C 85.728 341.947 78.564 334.69 71.4 327.43
C 64.715 320.655 58.022 313.959 52.416 306.235
C 33.335 279.947 26.962 246.024 35.563 214.733
C 38.196 205.156 41.779 195.965 46.932 187.442
C 52.796 177.741 60.551 169.545 68.32 161.373
C 81.681 147.319 95.308 133.488 108.887 119.641
C 128.211 99.936 147.688 80.378 166.998 60.651
C 174.463 53.024 181.625 44.007 190.489 38
C 201.212 30.731 215.091 29.332 227.501 32.238
C 256.181 38.954 270.471 75.873 255.828 100.767
C 252.801 105.912 248.168 110.111 243.955 114.269
C 238.283 119.867 232.555 125.405 226.887 131.005
C 207.655 150.006 188.931 169.515 169.658 188.477
C 164.11 193.936 158.741 199.578 153.186 205.031
C 148.594 209.54 143.42 214.417 140.644 220.315 Z"
opacity="1" fill="rgb(51,49,252)" fill-rule="evenodd" />
<path d="
M 140.644 220.315
C 139.537 222.552 138.202 224.61 137.275 226.95
C 131.031 242.835 133.002 261.141 142.404 275.423
C 147.258 282.795 154.014 288.677 160.227 294.852
C 172.724 307.272 185.324 319.668 198.165 331.74
C 203.153 336.429 208.762 340.628 213.603 345.422
C 211.88 344.504 208.455 345.606 206.594 345.946
C 201.202 346.932 195.775 347.676 190.294 347.874
C 175.037 348.425 158.964 346.069 144.645 340.628
C 138.033 338.115 131.718 334.781 126.524 329.893
C 122.117 325.745 118.101 321.284 115.151 315.966
C 103.621 295.185 108.775 269.264 119.012 249.186
C 121.043 245.202 123.212 241.195 125.778 237.526
C 129.516 232.182 133.681 227.096 138.078 222.285
C 138.841 221.451 139.931 221.129 140.644 220.315 Z"
opacity="1" fill="rgb(20,5,95)" fill-rule="evenodd" />
<path d="
M 347.311 59.742
C 347.289 61.96 343.839 64.858 342.512 66.561
C 338.659 71.505 335.068 76.596 332.367 82.281
C 326.219 95.224 321.319 108.033 318.268 122.078
C 317.078 127.559 316.737 133.104 315.934 138.629
C 313.527 155.204 316.107 173.354 319.461 189.61
C 320.369 194.009 321.517 198.403 322.985 202.649
C 323.33 203.648 324.761 205.946 323.864 206.841
C 319.344 211.755 314.169 216.294 309.436 221.032
C 295.455 235.028 281.854 249.446 268.235 263.795
C 256.872 275.768 245.578 290.552 229.685 296.599
C 218.708 300.775 206.078 300.911 195.222 296.167
C 175.403 287.506 164.895 264.873 169.734 244.062
C 172.308 232.992 179.286 225.819 187.054 218.042
C 195.55 209.537 204.522 201.513 213.025 193.016
C 237.375 168.682 261.625 144.213 285.86 119.75
C 291.444 114.113 297.344 108.791 302.96 103.189
C 313.215 92.957 323.571 82.854 333.967 72.765
C 336.765 70.05 339.54 67.314 342.288 64.548
C 343.844 62.982 345.466 60.947 347.311 59.742 Z"
opacity="1" fill="rgb(19,5,94)" fill-rule="evenodd" />
<path d="
M 347.311 59.742
C 348.399 58.129 350.184 56.947 351.644 55.694
C 355.013 52.8 358.81 50.274 362.608 47.977
C 377.479 38.988 393.113 33.199 410.464 31.537
C 431.068 29.564 453.901 33.657 471.883 44.146
C 483.648 51.009 493.473 60.241 503.159 69.7
C 511.455 77.801 519.692 85.965 527.867 94.192
C 545.707 112.148 564.218 129.489 581.62 147.865
C 591.069 157.842 601.482 166.86 610.836 176.93
C 613.835 180.158 617.351 183.057 619.858 186.707
C 626.424 196.261 629.689 207.707 629.443 219.269
C 629.349 223.663 628.264 228.104 626.79 232.227
C 623.278 242.051 616.45 250.87 607.666 256.585
C 592.886 266.202 571.957 266.424 557.687 255.777
C 553.273 252.484 549.537 248.329 545.644 244.46
C 539.689 238.541 533.721 232.64 527.828 226.659
C 509.635 208.194 491.543 189.618 473.162 171.338
C 464.959 163.18 457.322 153.762 447.95 146.895
C 440.425 141.381 431.432 137.641 422.202 136.339
C 407.016 134.198 392.569 138.708 380.498 147.96
C 373.893 153.022 368.432 159.714 362.692 165.699
C 354.314 174.435 345.797 183.051 337.552 191.913
C 334.193 195.523 330.939 199.232 327.531 202.797
C 326.332 204.051 325.262 205.841 323.864 206.841
C 324.761 205.946 323.33 203.648 322.985 202.649
C 321.517 198.403 320.369 194.009 319.461 189.61
C 316.107 173.354 313.527 155.204 315.934 138.629
C 316.737 133.104 317.078 127.559 318.268 122.078
C 321.319 108.033 326.219 95.224 332.367 82.281
C 335.068 76.596 338.659 71.505 342.512 66.561
C 343.839 64.858 347.289 61.96 347.311 59.742 Z"
opacity="1" fill="rgb(51,49,252)" fill-rule="evenodd" />
<path d="
M 336.044 455.732
C 337.983 452.314 341.85 449.388 344.588 446.591
C 349.935 441.128 355.144 435.546 360.381 429.98
C 372.637 416.957 385.477 404.493 397.769 391.499
C 408.126 380.55 418.432 368.503 433.071 363.428
C 436.796 362.137 440.586 361.792 444.489 361.541
C 448.224 361.3 452.025 361.705 455.661 362.574
C 478.125 367.946 492.956 389.114 490.655 412.041
C 489.93 419.265 486.995 426.324 482.597 432.074
C 479.338 436.334 475.16 439.88 471.288 443.559
C 463.984 450.498 456.575 457.31 449.463 464.445
C 445.114 468.808 440.463 472.884 436.137 477.258
C 411.865 501.799 387.417 526.232 362.855 550.497
C 352.754 560.475 342.926 570.727 332.892 580.771
C 330.148 583.518 327.279 586.146 324.569 588.925
C 323.187 590.342 321.925 592.122 320.321 593.285
C 319.614 593.59 319.362 593.051 319.696 592.452
C 320.459 591.083 321.465 589.841 322.272 588.494
C 324.269 585.164 326.294 581.827 328.029 578.349
C 333.269 567.846 337.58 557.012 340.08 545.517
C 344.264 526.28 344.841 506.084 342.02 486.604
C 341.057 479.95 339.871 473.347 338.263 466.816
C 337.463 463.567 335.549 459.056 336.044 455.732 Z"
opacity="1" fill="rgb(51,49,252)" fill-rule="evenodd" />
<path d="
M 605.584 351.996
C 604.843 352.669 602.208 349.934 601.627 349.495
C 597.643 346.487 593.612 343.511 589.683 340.428
C 580.271 333.043 568.409 327.459 557.209 323.44
C 534.424 315.264 508.838 311.531 484.847 315.412
C 478.051 316.512 471.2 318.081 464.675 320.294
C 461.623 321.33 458.457 322.86 455.351 323.593
C 435.88 306.911 418.257 288.315 399.426 270.949
C 393.907 265.858 388.7 260.518 383.395 255.215
C 376.52 248.343 370.15 241.963 366.664 232.64
C 363.612 224.477 362.767 215.162 364.716 206.619
C 365.986 201.054 369.025 195.769 372.438 191.261
C 384.392 175.468 403.817 168.434 423.014 173.923
C 433.909 177.039 441.475 184.438 449.327 192.133
C 458.605 201.223 467.375 210.841 476.756 219.822
C 483.749 226.517 490.218 233.729 497.002 240.633
C 517.054 261.037 537.105 281.449 557.163 301.843
C 568.649 313.521 580.358 324.985 591.593 336.907
C 596.268 341.869 601.543 346.479 605.584 351.996 Z"
opacity="1" fill="rgb(19,5,94)" fill-rule="evenodd" />
<path d="
M 455.351 323.593
C 458.457 322.86 461.623 321.33 464.675 320.294
C 471.2 318.081 478.051 316.512 484.847 315.412
C 508.838 311.531 534.424 315.264 557.209 323.44
C 568.409 327.459 580.271 333.043 589.683 340.428
C 593.612 343.511 597.643 346.487 601.627 349.495
C 602.208 349.934 604.843 352.669 605.584 351.996
C 607.678 354.164 609.233 357.003 610.886 359.51
C 616.213 367.587 620.494 376.229 623.447 385.447
C 633.38 416.458 628.994 450.07 611.639 477.655
C 607.26 484.614 601.694 490.318 596.155 496.316
C 587.906 505.249 579.391 513.807 570.625 522.221
C 552.012 540.086 533.873 558.501 515.765 576.871
C 510.135 582.584 504.135 587.898 498.411 593.517
C 491.733 600.072 485.586 607.168 478.808 613.605
C 474.246 617.937 469.785 622.084 464.078 624.914
C 457.527 628.163 449.876 629.5 442.61 629.468
C 438.509 629.449 434.356 628.691 430.461 627.429
C 426.103 626.017 421.454 624.125 417.762 621.371
C 399.501 607.749 392.527 584.041 402.291 563.167
C 403.97 559.576 405.886 556.236 408.527 553.252
C 416.697 544.019 426.067 535.695 434.74 526.933
C 451.671 509.827 468.436 492.554 485.311 475.393
C 490.931 469.679 496.547 463.96 502.164 458.243
C 509.479 450.795 516.504 443.037 520.487 433.215
C 527.415 416.13 523.116 394.876 512.634 380.168
C 509.269 375.445 504.929 371.291 500.854 367.193
C 495.509 361.818 490.058 356.547 484.664 351.221
C 475.075 341.749 465.339 332.617 455.351 323.593 Z"
opacity="1" fill="rgb(43,31,143)" fill-rule="evenodd" />

</svg>