<svg xmlns="http://www.w3.org/2000/svg"
shape-rendering="geometricPrecision"
width="4000" height="4000" viewBox="0 0 1024 1024">
  <metadata>null</metadata>

<path d="
M 347.058 524.478
C 344.384 525.547 341.105 525.914 338.288 526.562
C 333.695 527.619 329.139 528.857 324.547 529.932
C 276.25 541.243 225.756 532.247 181.774 510.29
C 172.301 505.561 163.383 499.315 154.726 493.248
C 151.546 491.019 148.882 487.857 145.468 486.003
C 140.604 481.645 136.748 475.199 133.343 469.686
C 125.444 456.899 119.418 442.765 115.785 428.181
C 106.061 389.147 110.885 347.224 132.201 312.752
C 135.17 307.951 138.066 302.89 141.574 298.456
C 149.309 288.682 158.234 280.098 167.152 271.426
C 174.889 263.902 182.533 256.278 190.19 248.673
C 214.455 224.57 238.643 200.361 263.134 176.487
C 275.181 164.743 287.1 152.871 299.104 141.088
C 308.146 132.212 316.738 122.265 327.514 115.432
C 342.193 106.126 360.129 105.099 376.626 109.059
C 383.114 110.617 389.825 113.401 395.343 117.167
C 403.858 122.978 411.05 130.537 415.938 139.646
C 427.486 161.165 423.893 189.258 408.303 207.707
C 403.835 212.995 398.636 217.753 393.72 222.619
C 385.554 230.705 377.313 238.715 369.092 246.741
C 347.018 268.293 325.343 290.27 303.373 311.93
C 295.569 319.624 287.927 327.481 280.121 335.172
C 274.067 341.136 267.395 347.044 262.435 353.987
C 259.79 357.689 257.559 361.815 255.611 365.92
C 244.188 389.992 246.148 419.382 261.524 441.376
C 267.082 449.327 274.195 456.146 281.279 462.715
C 287.655 468.626 293.856 474.812 300.084 480.876
C 310.531 491.047 321.083 501.154 331.934 510.888
C 336.943 515.381 341.762 520.333 347.058 524.478 Z"
opacity="1" fill="rgb(224,224,224)" fill-rule="evenodd" />
<path d="
M 343.49 750.484
C 342.842 750.761 344.882 752.923 345.201 753.26
C 347.632 755.822 350.33 758.16 352.809 760.687
C 359.405 767.409 366.08 774.103 373.087 780.4
C 378.448 785.217 384.083 789.911 390.224 793.712
C 410.571 806.305 434.148 811.315 457.77 807.212
C 465.58 805.856 472.94 802.733 479.91 799.091
C 485.55 796.144 491.258 792.622 495.97 788.32
C 517.294 768.85 525.994 739.754 525.516 711.493
C 525.356 702.004 523.611 692.596 521.678 683.331
C 521.298 681.512 521.222 679.639 520.759 677.84
C 521.662 676.017 523.413 674.553 524.773 673.066
C 527.583 669.992 530.545 667.097 533.584 664.254
C 540.803 657.501 547.537 650.14 554.451 643.072
C 573.718 623.378 592.982 603.691 612.226 583.973
C 618.953 577.081 625.37 569.374 632.969 563.427
C 640.672 557.399 650.815 552.847 660.515 551.388
C 682.028 548.153 703.957 556.117 717.964 572.876
C 721.382 576.965 723.634 581.497 725.749 586.336
C 734.395 606.112 732.946 630.175 719.307 647.434
C 716.11 651.478 712.096 654.768 708.445 658.382
C 700.642 666.106 692.663 673.634 684.87 681.365
C 660.679 705.366 636.272 729.111 611.665 752.671
C 582.895 780.215 554.651 808.418 526.332 836.422
C 518.393 844.273 510.407 852.07 502.373 859.822
C 496.399 865.587 490.574 871.595 484.138 876.855
C 478.016 881.858 471.105 886.334 464.201 890.17
C 446.324 900.105 425.768 906.726 405.462 909.061
C 386.909 911.194 368.19 908.745 350.117 904.603
C 332.144 900.484 314.904 891.568 300.324 880.46
C 288.977 871.816 279.036 861.412 268.863 851.464
C 252.769 835.727 236.798 819.865 220.729 804.103
C 197.945 781.754 174.992 759.573 152.062 737.376
C 143.537 729.123 133.959 721.432 126.466 712.191
C 114.769 697.768 109.414 678.964 112.252 660.51
C 115.619 638.615 130.81 618.843 151.511 610.716
C 160.855 607.048 171.599 605.951 181.538 607.096
C 187.487 607.782 193.44 608.972 198.886 611.595
C 209.427 616.669 217.172 624.638 225.369 632.77
C 234.713 642.041 243.971 651.399 253.303 660.681
C 275.127 682.39 296.983 704.066 318.589 725.995
C 324.199 731.688 329.731 737.54 335.504 743.055
C 338.083 745.518 341.146 747.828 343.49 750.484 Z"
opacity="1" fill="rgb(47,51,57)" fill-rule="evenodd" />
<path d="
M 145.468 486.003
C 148.882 487.857 151.546 491.019 154.726 493.248
C 163.383 499.315 172.301 505.561 181.774 510.29
C 225.756 532.247 276.25 541.243 324.547 529.932
C 329.139 528.857 333.695 527.619 338.288 526.562
C 341.105 525.914 344.384 525.547 347.058 524.478
C 349.691 526.287 351.976 529.167 354.266 531.406
C 359.438 536.461 364.614 541.511 369.863 546.486
C 386.811 562.55 403.663 578.663 420.901 594.417
C 427.269 600.236 433.546 606.131 439.81 612.059
C 444.498 616.496 449.372 620.732 453.012 626.136
C 455.549 629.902 457.586 634.355 459.16 638.611
C 462.479 647.587 464.423 657.376 463.529 666.977
C 462.081 682.539 455.007 698.326 443.058 708.667
C 429.216 720.645 409.561 725.493 391.598 723.03
C 382.538 721.788 373.374 717.936 366.202 712.279
C 360.715 707.95 356.179 702.535 351.3 697.565
C 341.815 687.903 332.421 678.155 322.91 668.518
C 302.772 648.116 282.811 627.53 262.69 607.117
C 253.321 597.612 243.677 588.338 234.458 578.691
C 223.876 567.62 213.268 556.539 202.473 545.666
C 188.508 531.601 174.447 517.456 160.986 502.911
C 157.316 498.946 153.447 495.17 149.854 491.135
C 148.347 489.442 146.544 488.03 145.468 486.003 Z"
opacity="1" fill="rgb(124,128,129)" fill-rule="evenodd" />
<path d="
M 676.126 259.875
C 674.515 257.453 671.68 255.901 669.64 253.861
C 664.584 248.802 659.351 243.892 654.001 239.146
C 643.847 230.138 633.078 221.245 620.937 215.013
C 598.907 203.703 571.886 200.113 548.521 209.887
C 539.929 213.482 532.466 218.588 525.359 224.536
C 521.102 228.1 517.466 232.516 514.211 236.992
C 506.628 247.423 500.936 259.28 498.461 272.015
C 497.17 278.656 496.938 285.256 496.506 291.977
C 495.975 300.238 495.928 308.765 497.228 316.958
C 498.258 323.445 499.497 329.884 500.629 336.353
C 500.958 338.232 500.82 342.215 502.285 343.552
C 502.69 343.709 504.321 343.824 504.247 344.282
C 496.916 353.056 488.007 360.671 480.09 368.918
C 462.096 387.66 443.991 406.387 425.604 424.737
C 419.602 430.726 413.772 436.963 407.925 443.109
C 403.644 447.608 399.152 452.348 394.105 456.006
C 389.518 459.331 384.385 461.756 379.081 463.701
C 369.765 467.116 359.919 468.53 350.037 467.584
C 343.803 466.987 337.593 465.302 331.938 462.612
C 325.569 459.583 319.418 455.595 314.401 450.609
C 298.1 434.403 292.682 409.918 298.944 388.04
C 303.343 372.672 315.5 362.122 326.957 351.781
C 340.785 339.3 354.37 326.373 367.597 313.263
C 407.15 274.061 447.218 235.374 486.703 196.099
C 498.828 184.038 510.947 171.965 523.162 159.996
C 529.993 153.303 536.713 146.311 544.015 140.132
C 551.134 134.108 559.342 128.71 567.462 124.147
C 613.483 98.288 672.495 102.897 716.513 130.676
C 727.598 137.672 736.771 146.692 746.026 155.881
C 753.092 162.897 760.125 169.946 767.189 176.964
C 792.894 202.498 819.016 227.596 844.737 253.118
C 857.218 265.502 869.771 277.811 882.285 290.162
C 887.23 295.042 892.217 299.876 897.123 304.794
C 900.098 307.777 903.325 310.746 905.742 314.219
C 916.865 330.202 920.449 350.516 915.483 369.325
C 910.138 389.567 893.361 406.249 873.301 412.03
C 865.551 414.264 856.882 414.806 848.881 413.971
C 841.146 413.164 833.485 411.198 826.723 407.22
C 821.168 403.952 817.337 399.265 812.654 394.999
C 803.682 386.825 795.348 377.785 786.838 369.126
C 761.897 343.75 736.93 318.365 711.556 293.42
C 703.712 285.708 696.069 277.766 688.033 270.253
C 685.37 267.763 682.657 265.351 679.883 262.987
C 678.687 261.968 677.521 260.605 676.126 259.875 Z"
opacity="1" fill="rgb(230,230,229)" fill-rule="evenodd" />
<path d="
M 343.49 750.484
C 347.127 752.879 350.384 755.743 354.145 758.003
C 361.681 762.533 370.055 766.039 378.575 768.22
C 401.308 774.04 424.658 769.363 443.611 755.379
C 448.951 751.439 453.657 746.508 458.326 741.817
C 463.843 736.274 469.431 730.805 474.902 725.215
C 490.262 709.523 505.867 693.965 520.759 677.84
C 521.222 679.639 521.298 681.512 521.678 683.331
C 523.611 692.596 525.356 702.004 525.516 711.493
C 525.994 739.754 517.294 768.85 495.97 788.32
C 491.258 792.622 485.55 796.144 479.91 799.091
C 472.94 802.733 465.58 805.856 457.77 807.212
C 434.148 811.315 410.571 806.305 390.224 793.712
C 384.083 789.911 378.448 785.217 373.087 780.4
C 366.08 774.103 359.405 767.409 352.809 760.687
C 350.33 758.16 347.632 755.822 345.201 753.26
C 344.882 752.923 342.842 750.761 343.49 750.484 Z"
opacity="1" fill="rgb(97,102,106)" fill-rule="evenodd" />
<path d="
M 676.126 259.875
C 666.712 254.607 657.323 249.308 646.581 247.207
C 631.263 244.21 614.966 245.184 600.592 251.589
C 594.083 254.49 588.103 258.591 582.479 262.934
C 575.809 268.084 570.351 274.767 564.478 280.763
C 550.856 294.667 537.49 308.874 524.197 323.089
C 517.659 330.08 511.423 337.95 504.247 344.282
C 504.321 343.824 502.69 343.709 502.285 343.552
C 500.82 342.215 500.958 338.232 500.629 336.353
C 499.497 329.884 498.258 323.445 497.228 316.958
C 495.928 308.765 495.975 300.238 496.506 291.977
C 496.938 285.256 497.17 278.656 498.461 272.015
C 500.936 259.28 506.628 247.423 514.211 236.992
C 517.466 232.516 521.102 228.1 525.359 224.536
C 532.466 218.588 539.929 213.482 548.521 209.887
C 571.886 200.113 598.907 203.703 620.937 215.013
C 633.078 221.245 643.847 230.138 654.001 239.146
C 659.351 243.892 664.584 248.802 669.64 253.861
C 671.68 255.901 674.515 257.453 676.126 259.875 Z"
opacity="1" fill="rgb(183,183,183)" fill-rule="evenodd" />
<path d="
M 888.473 538.549
C 888.296 538.981 887.362 538.027 887.107 537.826
C 885.821 536.814 884.553 535.766 883.33 534.68
C 880.035 531.754 876.487 529.004 872.956 526.37
C 862.785 518.783 851.17 511.855 839.537 506.762
C 823.184 499.601 806.457 493.65 788.882 490.206
C 781.107 488.683 773.238 487.813 765.373 486.969
C 751.005 485.427 736.114 486.866 721.897 489.021
C 712.582 490.432 703.528 492.779 694.433 495.197
C 692.244 495.778 689.991 496.408 687.859 497.17
C 686.99 497.481 686.173 497.564 685.857 498.492
C 683.041 496.748 680.659 494.147 678.202 491.952
C 673.423 487.682 668.698 483.344 663.877 479.121
C 644.464 462.117 626.363 443.683 607.119 426.499
C 602.308 422.204 597.723 417.661 592.969 413.303
C 582.092 403.334 572.048 393.351 566.919 379.152
C 562.411 366.672 561.141 352.411 564.953 339.547
C 571.016 319.087 587.297 301.88 608.054 295.927
C 616.79 293.421 626.01 293.077 634.964 294.504
C 645.124 296.122 655.24 300.88 663.329 307.18
C 669.631 312.088 675.019 318.326 680.614 324.004
C 691.183 334.729 701.807 345.395 712.284 356.211
C 750.054 395.204 788.281 433.734 826.252 472.536
C 840.299 486.891 854.421 501.155 868.121 515.841
C 875.027 523.244 882.731 530.141 888.473 538.549 Z"
opacity="1" fill="rgb(186,187,187)" fill-rule="evenodd" />
<path d="
M 685.857 498.492
C 686.173 497.564 686.99 497.481 687.859 497.17
C 689.991 496.408 692.244 495.778 694.433 495.197
C 703.528 492.779 712.582 490.432 721.897 489.021
C 736.114 486.866 751.005 485.427 765.373 486.969
C 773.238 487.813 781.107 488.683 788.882 490.206
C 806.457 493.65 823.184 499.601 839.537 506.762
C 851.17 511.855 862.785 518.783 872.956 526.37
C 876.487 529.004 880.035 531.754 883.33 534.68
C 884.553 535.766 885.821 536.814 887.107 537.826
C 887.362 538.027 888.296 538.981 888.473 538.549
C 890.998 541.257 892.978 544.863 895.035 547.942
C 902.005 558.375 907.519 569.564 911.605 581.426
C 925.322 621.242 921.498 668.386 899.283 704.539
C 886.446 725.433 867.058 741.73 849.816 758.901
C 822.455 786.147 795.23 813.532 767.951 840.863
C 756.722 852.113 745.179 863.129 734.208 874.625
C 727.903 881.231 721.466 887.732 714.856 894.037
C 711.847 896.908 709.049 900.135 705.626 902.531
C 689.4 913.887 667.49 916.435 648.968 909.432
C 642.646 907.041 636.901 903.749 631.593 899.573
C 604.434 878.205 601.558 835.425 623.077 809.323
C 626.56 805.098 630.753 801.448 634.581 797.543
C 643.644 788.296 652.89 779.218 662.077 770.095
C 683.568 748.753 704.757 727.129 726.316 705.867
C 735.216 697.089 744.286 688.339 752.702 679.098
C 757.017 674.36 761.671 669.984 765.405 664.731
C 768.285 660.681 770.51 656.262 772.493 651.714
C 783.416 626.65 778.395 596.352 763.215 574.235
C 756.425 564.341 747.061 556.189 738.557 547.824
C 725.829 535.305 712.775 523.109 699.687 510.978
C 695.136 506.76 690.252 502.845 685.857 498.492 Z"
opacity="1" fill="rgb(87,93,94)" fill-rule="evenodd" />

</svg>